Format                                   : Matroska
Format version                           : Version 4 / Version 2
File size                                : 1.10 GiB
Duration                                 : 59mn 52s
Overall bit rate                         : 2 639 Kbps
Encoded date                             : UTC 2013-05-14 21:35:38
Writing application                      : mkvmerge v6.1.0 ('Old Devil') built on Mar  2 2013 14:32:37
Writing library                          : Lavf54.29.104

Video
ID                                       : 1
Format                                   : AVC
Format/Info                              : Advanced Video Codec
Format profile                           : High@L3.1
Format settings, CABAC                   : Yes
Format settings, ReFrames                : 2 frames
Codec ID                                 : V_MPEG4/ISO/AVC
Duration                                 : 59mn 52s
Bit rate                                 : 2 139 Kbps
Nominal bit rate                         : 4 378 Kbps
Width                                    : 1 280 pixels
Height                                   : 720 pixels
Display aspect ratio                     : 16:9
Frame rate mode                          : Constant
Frame rate                               : 29.970 fps
Original frame rate                      : 59.940 fps
Color space                              : YUV
Chroma subsampling                       : 4:2:0
Bit depth                                : 8 bits
Scan type                                : Progressive
Bits/(Pixel*Frame)                       : 0.077
Stream size                              : 916 MiB (81%)
Writing library                          : x264 core 129 r2230 1cffe9f
Encoding settings                        : cabac=1 / ref=2 / deblock=0:0:0 / analyse=0x3:0x113 / me=dia / subme=7 / psy=1 / psy_rd=0.00:0.00 / mixed_ref=0 / me_range=16 / chroma_me=0 / trellis=1 / 8x8dct=1 / cqm=0 / deadzone=21,21 / fast_pskip=1 / chroma_qp_offset=0 / threads=12 / lookahead_threads=2 / sliced_threads=0 / nr=0 / decimate=0 / interlaced=0 / bluray_compat=0 / constrained_intra=0 / bframes=2 / b_pyramid=0 / b_adapt=0 / b_bias=0 / direct=0 / weightb=0 / open_gop=0 / weightp=0 / keyint=500 / keyint_min=100 / scenecut=40 / intra_refresh=0 / rc=2pass / mbtree=0 / bitrate=4378 / ratetol=1.0 / qcomp=0.60 / qpmin=0 / qpmax=69 / qpstep=4 / cplxblur=20.0 / qblur=0.5 / ip_ratio=1.40 / pb_ratio=1.30 / aq=0
Default                                  : Yes
Forced                                   : No

Audio
ID                                       : 2
Format                                   : AC-3
Format/Info                              : Audio Coding 3
Mode extension                           : CM (complete main)
Format settings, Endianness              : Big
Codec ID                                 : A_AC3
Duration                                 : 59mn 52s
Bit rate mode                            : Constant
Bit rate                                 : 448 Kbps
Channel(s)                               : 6 channels
Channel positions                        : Front: L C R, Side: L R, LFE
Sampling rate                            : 48.0 KHz
Bit depth                                : 16 bits
Compression mode                         : Lossy
Delay relative to video                  : 74ms
Stream size                              : 192 MiB (17%)
Default                                  : Yes
Forced                                   : No

Text
ID                                       : 3
Format                                   : UTF-8
Codec ID                                 : S_TEXT/UTF8
Codec ID/Info                            : UTF-8 Plain Text
Default                                  : Yes
Forced                                   : No
